<?xml version="1.0" encoding="UTF-8" standalone="no"?>
<!-- Uploaded to: SVG Repo, www.svgrepo.com, Generator: SVG Repo Mixer Tools -->
<svg 
   viewBox="0 0 600 600"
   version="1.1"
   id="svg9724"
   sodipodi:docname="chat.svg"
   inkscape:version="1.2.2 (1:1.2.2+202212051550+b0a8486541)"
   width="600"
   height="600"
   xmlns:inkscape="http://www.inkscape.org/namespaces/inkscape"
   xmlns:sodipodi="http://sodipodi.sourceforge.net/DTD/sodipodi-0.dtd"
   xmlns="http://www.w3.org/2000/svg"
   xmlns:svg="http://www.w3.org/2000/svg">
  <defs
     id="defs9728" />
  <sodipodi:namedview
     id="namedview9726"
     pagecolor="#ffffff"
     bordercolor="#666666"
     borderopacity="1.0"
     inkscape:showpageshadow="2"
     inkscape:pageopacity="0.0"
     inkscape:pagecheckerboard="0"
     inkscape:deskcolor="#d1d1d1"
     showgrid="true"
     inkscape:zoom="0.84118632"
     inkscape:cx="568.83949"
     inkscape:cy="407.16307"
     inkscape:window-width="1920"
     inkscape:window-height="1009"
     inkscape:window-x="0"
     inkscape:window-y="1080"
     inkscape:window-maximized="1"
     inkscape:current-layer="svg9724"
     showguides="true">
    <inkscape:grid
       type="xygrid"
       id="grid9972"
       originx="0"
       originy="0" />
    <sodipodi:guide
       position="-260,300"
       orientation="0,-1"
       id="guide383"
       inkscape:locked="false" />
    <sodipodi:guide
       position="300,520"
       orientation="1,0"
       id="guide385"
       inkscape:locked="false" />
    <sodipodi:guide
       position="450,470"
       orientation="0,-1"
       id="guide939"
       inkscape:locked="false" />
    <sodipodi:guide
       position="220,80"
       orientation="0,-1"
       id="guide941"
       inkscape:locked="false" />
  </sodipodi:namedview>
  
  <path
     id="rect1061-5"
     style="color:#ef4444;fill:#ef4444;stroke-width:1;stroke-linejoin:round;-inkscape-stroke:none;paint-order:stroke fill markers"
     d="M 36.59136,0 C 16.90503,0.002 0.94651,15.96048 0.94456,35.64682 V 223.44244 L 0,389.79426 c 0.007,30.21809 35.24811,46.72466 58.46682,27.38492 L 188.35492,308.9391 h 275.9982 c 19.6864,-0.002 35.6449,-15.96048 35.6469,-35.64682 V 35.64682 C 500.00002,15.96048 484.03952,0.00197 464.35312,0 Z M 72.23819,71.29364 H 428.70632 V 237.64546 H 72.23819 Z m 77.23478,53.47023 c -16.26523,0 -29.70569,13.44045 -29.70569,29.70568 0,16.26523 13.44046,29.70568 29.70569,29.70568 16.26523,0 29.70568,-13.44045 29.70568,-29.70568 0,-16.26523 -13.44045,-29.70568 -29.70568,-29.70568 z m 100.99935,0 c -16.2653,0 -29.7057,13.44045 -29.7057,29.70568 0,16.26523 13.4404,29.70568 29.7057,29.70568 16.2652,0 29.7057,-13.44045 29.7057,-29.70568 0,-16.26523 -13.4405,-29.70568 -29.7057,-29.70568 z m 100.9993,0 c -16.2652,0 -29.7057,13.44045 -29.7057,29.70568 0,16.26523 13.4405,29.70568 29.7057,29.70568 16.2652,0 29.7057,-13.44045 29.7057,-29.70568 0,-16.26523 -13.4405,-29.70568 -29.7057,-29.70568 z m -201.99865,23.76454 c 3.42193,0 5.94112,2.5192 5.94112,5.94114 0,3.42194 -2.51919,5.94114 -5.94112,5.94114 -3.42194,0 -5.94114,-2.5192 -5.94114,-5.94114 0,-3.42194 2.5192,-5.94114 5.94114,-5.94114 z m 100.99935,0 c 3.4219,0 5.9411,2.5192 5.9411,5.94114 0,3.42194 -2.5192,5.94114 -5.9411,5.94114 -3.422,0 -5.9412,-2.5192 -5.9412,-5.94114 0,-3.42194 2.5192,-5.94114 5.9412,-5.94114 z m 100.9993,0 c 3.4219,0 5.9411,2.5192 5.9411,5.94114 0,3.42194 -2.5192,5.94114 -5.9411,5.94114 -3.4219,0 -5.9411,-2.5192 -5.9411,-5.94114 0,-3.42194 2.5191,-5.94114 5.9411,-5.94114 z" />
  <path
     id="path2807"
     style="color:#ef4444;fill:#ef4444;stroke-width:1;stroke-linejoin:round;-inkscape-stroke:none;paint-order:stroke fill markers"
     d="m 510,174.49656 v 71.29297 h 17.76172 V 412.14109 H 171.29297 V 341.49266 L 100,400.90281 v 46.88477 c 0.002,19.6863 15.96019,35.64448 35.64648,35.64648 H 411.64453 L 541.5332,591.6743 C 564.75187,611.014 599.993,594.50756 600,564.28953 L 599.05469,397.93797 V 210.14305 c -0.002,-19.6863 -15.96018,-35.64449 -35.64649,-35.64649 z m -31.72852,144.2168 c -1.28788,0.14106 -2.59255,0.22643 -3.91796,0.22656 h -51.64258 c -1.15466,3.15183 -1.88867,6.50011 -1.88867,10.02539 0,16.26521 13.43988,29.70508 29.70507,29.70508 16.26521,0 29.70508,-13.43987 29.70508,-29.70508 0,-3.60825 -0.75395,-7.03761 -1.96094,-10.25195 z m -257.55859,0.22656 c -1.15466,3.15183 -1.89062,6.50011 -1.89062,10.02539 0,16.26521 13.44182,29.70508 29.70703,29.70508 16.26519,0 29.70508,-13.43987 29.70508,-29.70508 0,-3.52528 -0.73597,-6.87356 -1.89063,-10.02539 z m 100.99805,0 c -1.15463,3.15178 -1.88867,6.50016 -1.88867,10.02539 0,16.26521 13.43988,29.70508 29.70507,29.70508 16.26521,0 29.70508,-13.43987 29.70508,-29.70508 0,-3.52528 -0.73401,-6.87356 -1.88867,-10.02539 z m -73.18164,4.08399 c 3.42192,0 5.93945,2.51948 5.93945,5.9414 0,3.42194 -2.51753,5.94141 -5.93945,5.94141 -3.42194,0 -5.94141,-2.51947 -5.94141,-5.94141 0,-3.42192 2.51947,-5.9414 5.94141,-5.9414 z m 100.99804,0 c 3.42194,0 5.94141,2.51948 5.94141,5.9414 0,3.42194 -2.51947,5.94141 -5.94141,5.94141 -3.42192,0 -5.9414,-2.51947 -5.9414,-5.94141 0,-3.42192 2.51948,-5.9414 5.9414,-5.9414 z m 101,0 c 3.42194,0 5.94141,2.51948 5.94141,5.9414 0,3.42194 -2.51947,5.94141 -5.94141,5.94141 -3.42192,0 -5.9414,-2.51947 -5.9414,-5.94141 0,-3.42192 2.51948,-5.9414 5.9414,-5.9414 z" />
</svg>