<?xml version="1.0" encoding="utf-8"?>

<!-- Uploaded to: SVG Repo, www.svgrepo.com, Generator: SVG Repo Mixer Tools -->
<svg fill="#ffffff" version="1.1" id="Layer_1" xmlns="http://www.w3.org/2000/svg" xmlns:xlink="http://www.w3.org/1999/xlink" 
	 viewBox="0 0 24 24" xml:space="preserve">
<style type="text/css">
	.st0{fill:none;}
</style>
<path d="M12,2C6.5,2,2,6.5,2,12s4.5,10,10,10s10-4.5,10-10S17.5,2,12,2z M9.1,16c-2.2,0-4-1.8-4-4s1.8-4,4-4c1,0,2,0.4,2.7,1.1
	l-1.1,1.1c-0.4-0.4-1-0.6-1.6-0.6c-1.3,0-2.4,1.1-2.4,2.4s1.1,2.4,2.4,2.4c1.1,0,1.9-0.7,2.2-1.6H9.1v-1.5h3.8
	C13.2,12.9,12.5,16,9.1,16z M17.4,12.7v1.4H16v-1.4h-1.4v-1.4H16V9.9h1.4v1.4h1.4v1.4C18.8,12.7,17.4,12.7,17.4,12.7z"/>
<rect class="st0" width="24" height="24"/>
</svg>